<svg xmlns="http://www.w3.org/2000/svg" width="74" height="74" fill="none" viewBox="0 0 74 74"><path fill="url(#paint0_linear_2_466)" d="M58.476 0H15C6.71573 0 0 6.71573 0 15V58.476C0 66.7603 6.71573 73.476 15 73.476H58.476C66.7603 73.476 73.476 66.7603 73.476 58.476V15C73.476 6.71573 66.7603 0 58.476 0Z"/><path fill="#fff" d="M36.3419 39.42C38.0387 39.42 39.4142 38.0445 39.4142 36.3477C39.4142 34.6509 38.0387 33.2754 36.3419 33.2754C34.6451 33.2754 33.2695 34.6509 33.2695 36.3477C33.2695 38.0445 34.6451 39.42 36.3419 39.42Z"/><path stroke="#fff" stroke-miterlimit="10" stroke-width="1.5" d="M36.3413 30.1016C40.4655 30.1016 44.2973 30.6935 47.1858 31.6875C50.6663 32.8855 52.8066 34.7019 52.8066 36.3467C52.8066 38.0606 50.5384 39.9907 46.801 41.2283C43.9754 42.1645 40.2563 42.6538 36.3413 42.6538C32.3268 42.6538 28.5265 42.1949 25.6684 41.2182C22.0528 39.9826 19.875 38.0281 19.875 36.3467C19.875 34.7151 21.9188 32.913 25.3506 31.7169C28.2503 30.7067 32.1765 30.1016 36.3413 30.1016Z"/><path stroke="#fff" stroke-miterlimit="10" stroke-width="1.5" d="M30.9041 33.2428C32.9642 29.6699 35.3918 26.6463 37.6965 24.6411C40.4734 22.2247 43.1163 21.2784 44.5407 22.0998C46.0251 22.9557 46.5642 25.8849 45.7693 29.742C45.1682 32.658 43.7346 36.1232 41.7781 39.5154C39.7728 42.9928 37.4762 46.056 35.2029 48.044C32.3266 50.5589 29.5446 51.4686 28.0886 50.629C26.6753 49.8137 26.1352 47.1434 26.8124 43.5726C27.385 40.553 28.8227 36.8502 30.9041 33.2428Z"/><path stroke="#fff" stroke-miterlimit="10" stroke-width="1.5" d="M30.9095 39.5225C28.8433 35.9527 27.4361 32.3402 26.8492 29.342C26.1426 25.7295 26.6421 22.9669 28.0656 22.1435C29.549 21.2845 32.3553 22.2805 35.2997 24.895C37.5263 26.8718 39.8117 29.8446 41.7733 33.2337C43.7846 36.7081 45.2924 40.2272 45.8782 43.1888C46.6204 46.9373 46.0193 49.8015 44.5644 50.6432C43.1521 51.4605 40.5691 50.5955 37.8136 48.2248C35.4865 46.2215 32.9959 43.1269 30.9095 39.5225Z"/><defs><linearGradient id="paint0_linear_2_466" x1="-5.29" x2="73.476" y1="-2.351" y2="73.476" gradientUnits="userSpaceOnUse"><stop stop-color="#3CD89D"/><stop offset="1" stop-color="#82C444"/></linearGradient></defs></svg>